<mxfile host="app.diagrams.net" modified="2020-11-05T02:42:36.062Z" agent="5.0 (X11; Linux x86_64) AppleWebKit/537.36 (KHTML, like Gecko) Chrome/85.0.4183.121 Safari/537.36" etag="auyIpNj4cGK4oGCmk5tg" version="13.9.1" type="github">
  <diagram id="KsQNdJRiyhgeE9N4RiPK" name="Page-1">
    <mxGraphModel dx="2330" dy="660" grid="1" gridSize="10" guides="1" tooltips="1" connect="1" arrows="1" fold="1" page="1" pageScale="1" pageWidth="850" pageHeight="1100" math="0" shadow="0">
      <root>
        <mxCell id="0" />
        <mxCell id="1" parent="0" />
        <mxCell id="Ka_qR0vFbAZE_GIsa4IG-1" value="Admin&lt;br&gt;" style="shape=umlActor;verticalLabelPosition=bottom;verticalAlign=top;html=1;outlineConnect=0;" vertex="1" parent="1">
          <mxGeometry x="360" y="330" width="30" height="60" as="geometry" />
        </mxCell>
        <mxCell id="Ka_qR0vFbAZE_GIsa4IG-2" value="Tạo sản phẩm" style="ellipse;whiteSpace=wrap;html=1;" vertex="1" parent="1">
          <mxGeometry x="390" y="40" width="120" height="60" as="geometry" />
        </mxCell>
        <mxCell id="Ka_qR0vFbAZE_GIsa4IG-3" value="vào CRUD sản phẩm" style="ellipse;whiteSpace=wrap;html=1;" vertex="1" parent="1">
          <mxGeometry x="440" y="190" width="120" height="60" as="geometry" />
        </mxCell>
        <mxCell id="Ka_qR0vFbAZE_GIsa4IG-4" value="Xóa sản phẩm" style="ellipse;whiteSpace=wrap;html=1;" vertex="1" parent="1">
          <mxGeometry x="630" y="237.5" width="120" height="60" as="geometry" />
        </mxCell>
        <mxCell id="Ka_qR0vFbAZE_GIsa4IG-5" value="Thêm sản phẩm" style="ellipse;whiteSpace=wrap;html=1;" vertex="1" parent="1">
          <mxGeometry x="530" y="60" width="120" height="60" as="geometry" />
        </mxCell>
        <mxCell id="Ka_qR0vFbAZE_GIsa4IG-6" value="Sửa sản phẩm" style="ellipse;whiteSpace=wrap;html=1;" vertex="1" parent="1">
          <mxGeometry x="660" y="160" width="120" height="60" as="geometry" />
        </mxCell>
        <mxCell id="Ka_qR0vFbAZE_GIsa4IG-7" value="" style="endArrow=classic;html=1;entryX=-0.017;entryY=0.617;entryDx=0;entryDy=0;entryPerimeter=0;" edge="1" parent="1" target="Ka_qR0vFbAZE_GIsa4IG-3">
          <mxGeometry width="50" height="50" relative="1" as="geometry">
            <mxPoint x="390" y="320" as="sourcePoint" />
            <mxPoint x="530" y="150" as="targetPoint" />
          </mxGeometry>
        </mxCell>
        <mxCell id="Ka_qR0vFbAZE_GIsa4IG-11" value="" style="endArrow=block;dashed=1;endFill=0;endSize=12;html=1;exitX=0.5;exitY=1;exitDx=0;exitDy=0;" edge="1" parent="1" source="Ka_qR0vFbAZE_GIsa4IG-2" target="Ka_qR0vFbAZE_GIsa4IG-3">
          <mxGeometry width="160" relative="1" as="geometry">
            <mxPoint x="600" y="70" as="sourcePoint" />
            <mxPoint x="760" y="70" as="targetPoint" />
          </mxGeometry>
        </mxCell>
        <mxCell id="Ka_qR0vFbAZE_GIsa4IG-13" value="&amp;lt;&amp;lt;extend&amp;gt;&amp;gt;" style="endArrow=open;endSize=12;dashed=1;html=1;exitX=0;exitY=0.5;exitDx=0;exitDy=0;fontStyle=1" edge="1" parent="1" source="Ka_qR0vFbAZE_GIsa4IG-6" target="Ka_qR0vFbAZE_GIsa4IG-3">
          <mxGeometry width="160" relative="1" as="geometry">
            <mxPoint x="900" y="202.5" as="sourcePoint" />
            <mxPoint x="805" y="220" as="targetPoint" />
          </mxGeometry>
        </mxCell>
        <mxCell id="Ka_qR0vFbAZE_GIsa4IG-14" value="&amp;lt;&amp;lt;extend&amp;gt;&amp;gt;" style="endArrow=open;endSize=12;dashed=1;html=1;exitX=0;exitY=0.5;exitDx=0;exitDy=0;entryX=1;entryY=0;entryDx=0;entryDy=0;" edge="1" parent="1" source="Ka_qR0vFbAZE_GIsa4IG-5" target="Ka_qR0vFbAZE_GIsa4IG-3">
          <mxGeometry width="160" relative="1" as="geometry">
            <mxPoint x="910" y="212.5" as="sourcePoint" />
            <mxPoint x="815" y="230" as="targetPoint" />
          </mxGeometry>
        </mxCell>
        <mxCell id="Ka_qR0vFbAZE_GIsa4IG-15" value="&amp;lt;&amp;lt;extend&amp;gt;&amp;gt;" style="endArrow=open;endSize=12;dashed=1;html=1;exitX=0;exitY=0.5;exitDx=0;exitDy=0;entryX=0.667;entryY=1;entryDx=0;entryDy=0;entryPerimeter=0;" edge="1" parent="1" source="Ka_qR0vFbAZE_GIsa4IG-4" target="Ka_qR0vFbAZE_GIsa4IG-3">
          <mxGeometry width="160" relative="1" as="geometry">
            <mxPoint x="920" y="222.5" as="sourcePoint" />
            <mxPoint x="825" y="240" as="targetPoint" />
          </mxGeometry>
        </mxCell>
        <mxCell id="Ka_qR0vFbAZE_GIsa4IG-16" value="Tạo danh mục" style="ellipse;whiteSpace=wrap;html=1;" vertex="1" parent="1">
          <mxGeometry x="630" y="318.75" width="120" height="60" as="geometry" />
        </mxCell>
        <mxCell id="Ka_qR0vFbAZE_GIsa4IG-17" value="vào CRUD danh mục" style="ellipse;whiteSpace=wrap;html=1;" vertex="1" parent="1">
          <mxGeometry x="450" y="370" width="120" height="40" as="geometry" />
        </mxCell>
        <mxCell id="Ka_qR0vFbAZE_GIsa4IG-18" value="Xóa danh mục" style="ellipse;whiteSpace=wrap;html=1;" vertex="1" parent="1">
          <mxGeometry x="580" y="571.25" width="120" height="60" as="geometry" />
        </mxCell>
        <mxCell id="Ka_qR0vFbAZE_GIsa4IG-19" value="Thêm danh mục&lt;br&gt;" style="ellipse;whiteSpace=wrap;html=1;" vertex="1" parent="1">
          <mxGeometry x="630" y="401.25" width="120" height="60" as="geometry" />
        </mxCell>
        <mxCell id="Ka_qR0vFbAZE_GIsa4IG-20" value="Sửa danh mục" style="ellipse;whiteSpace=wrap;html=1;" vertex="1" parent="1">
          <mxGeometry x="620" y="491.25" width="120" height="60" as="geometry" />
        </mxCell>
        <mxCell id="Ka_qR0vFbAZE_GIsa4IG-21" value="" style="endArrow=classic;html=1;entryX=-0.017;entryY=0.617;entryDx=0;entryDy=0;entryPerimeter=0;" edge="1" target="Ka_qR0vFbAZE_GIsa4IG-17" parent="1">
          <mxGeometry width="50" height="50" relative="1" as="geometry">
            <mxPoint x="410" y="360" as="sourcePoint" />
            <mxPoint x="260" y="490" as="targetPoint" />
          </mxGeometry>
        </mxCell>
        <mxCell id="Ka_qR0vFbAZE_GIsa4IG-22" value="" style="endArrow=block;dashed=1;endFill=0;endSize=12;html=1;exitX=0;exitY=0.5;exitDx=0;exitDy=0;" edge="1" source="Ka_qR0vFbAZE_GIsa4IG-16" target="Ka_qR0vFbAZE_GIsa4IG-17" parent="1">
          <mxGeometry width="160" relative="1" as="geometry">
            <mxPoint x="540" y="450" as="sourcePoint" />
            <mxPoint x="700" y="450" as="targetPoint" />
          </mxGeometry>
        </mxCell>
        <mxCell id="Ka_qR0vFbAZE_GIsa4IG-23" value="&amp;lt;&amp;lt;extend&amp;gt;&amp;gt;" style="endArrow=open;endSize=12;dashed=1;html=1;exitX=0;exitY=0.5;exitDx=0;exitDy=0;fontStyle=1" edge="1" source="Ka_qR0vFbAZE_GIsa4IG-20" target="Ka_qR0vFbAZE_GIsa4IG-17" parent="1">
          <mxGeometry width="160" relative="1" as="geometry">
            <mxPoint x="840" y="582.5" as="sourcePoint" />
            <mxPoint x="745" y="600" as="targetPoint" />
          </mxGeometry>
        </mxCell>
        <mxCell id="Ka_qR0vFbAZE_GIsa4IG-24" value="&amp;lt;&amp;lt;extend&amp;gt;&amp;gt;" style="endArrow=open;endSize=12;dashed=1;html=1;exitX=0;exitY=0.5;exitDx=0;exitDy=0;" edge="1" source="Ka_qR0vFbAZE_GIsa4IG-19" target="Ka_qR0vFbAZE_GIsa4IG-17" parent="1">
          <mxGeometry width="160" relative="1" as="geometry">
            <mxPoint x="850" y="592.5" as="sourcePoint" />
            <mxPoint x="755" y="610" as="targetPoint" />
          </mxGeometry>
        </mxCell>
        <mxCell id="Ka_qR0vFbAZE_GIsa4IG-25" value="&amp;lt;&amp;lt;extend&amp;gt;&amp;gt;" style="endArrow=open;endSize=12;dashed=1;html=1;exitX=0;exitY=0.5;exitDx=0;exitDy=0;entryX=0.5;entryY=1;entryDx=0;entryDy=0;" edge="1" source="Ka_qR0vFbAZE_GIsa4IG-18" target="Ka_qR0vFbAZE_GIsa4IG-17" parent="1">
          <mxGeometry width="160" relative="1" as="geometry">
            <mxPoint x="860" y="602.5" as="sourcePoint" />
            <mxPoint x="765" y="620" as="targetPoint" />
          </mxGeometry>
        </mxCell>
        <mxCell id="Ka_qR0vFbAZE_GIsa4IG-27" value="" style="endArrow=open;endFill=1;endSize=12;html=1;entryX=1;entryY=0.5;entryDx=0;entryDy=0;" edge="1" parent="1" source="Ka_qR0vFbAZE_GIsa4IG-1" target="Ka_qR0vFbAZE_GIsa4IG-28">
          <mxGeometry width="160" relative="1" as="geometry">
            <mxPoint x="260" y="250" as="sourcePoint" />
            <mxPoint x="260" y="240" as="targetPoint" />
          </mxGeometry>
        </mxCell>
        <mxCell id="Ka_qR0vFbAZE_GIsa4IG-28" value="Update mục &quot;Thông tin khác&quot;" style="ellipse;whiteSpace=wrap;html=1;" vertex="1" parent="1">
          <mxGeometry x="120" y="330" width="140" height="55" as="geometry" />
        </mxCell>
        <mxCell id="Ka_qR0vFbAZE_GIsa4IG-29" value="Sửa trang tin tức, link&amp;nbsp;&lt;br&gt;bài báo về sản phẩm" style="ellipse;whiteSpace=wrap;html=1;" vertex="1" parent="1">
          <mxGeometry x="150" y="440" width="150" height="70" as="geometry" />
        </mxCell>
        <mxCell id="Ka_qR0vFbAZE_GIsa4IG-30" value="Sửa mục Thông tin liên hệ nhà phân phối" style="ellipse;whiteSpace=wrap;html=1;" vertex="1" parent="1">
          <mxGeometry x="140" y="200" width="140" height="70" as="geometry" />
        </mxCell>
        <mxCell id="Ka_qR0vFbAZE_GIsa4IG-31" value="Lấy thông tin liên hệ" style="ellipse;whiteSpace=wrap;html=1;" vertex="1" parent="1">
          <mxGeometry x="300" y="540" width="120" height="50" as="geometry" />
        </mxCell>
        <mxCell id="Ka_qR0vFbAZE_GIsa4IG-32" value="Sửa hình thức thanh toán" style="ellipse;whiteSpace=wrap;html=1;" vertex="1" parent="1">
          <mxGeometry x="-80" y="250" width="120" height="47.5" as="geometry" />
        </mxCell>
        <mxCell id="Ka_qR0vFbAZE_GIsa4IG-33" value="Sửa hình thức vận chuyển" style="ellipse;whiteSpace=wrap;html=1;" vertex="1" parent="1">
          <mxGeometry x="-80" y="310" width="120" height="50" as="geometry" />
        </mxCell>
        <mxCell id="Ka_qR0vFbAZE_GIsa4IG-34" value="Sửa mục &quot;chính sách bảo hành&quot;" style="ellipse;whiteSpace=wrap;html=1;" vertex="1" parent="1">
          <mxGeometry x="-80" y="430" width="120" height="50" as="geometry" />
        </mxCell>
        <mxCell id="Ka_qR0vFbAZE_GIsa4IG-35" value="Sửa chính sách đổi trả" style="ellipse;whiteSpace=wrap;html=1;" vertex="1" parent="1">
          <mxGeometry x="-80" y="380" width="120" height="40" as="geometry" />
        </mxCell>
        <mxCell id="Ka_qR0vFbAZE_GIsa4IG-38" value="Sửa trang giới thiệu công ty" style="ellipse;whiteSpace=wrap;html=1;" vertex="1" parent="1">
          <mxGeometry x="250" y="110" width="120" height="50" as="geometry" />
        </mxCell>
        <mxCell id="Ka_qR0vFbAZE_GIsa4IG-40" value="" style="endArrow=open;endFill=1;endSize=12;html=1;" edge="1" parent="1">
          <mxGeometry width="160" relative="1" as="geometry">
            <mxPoint x="350" y="320" as="sourcePoint" />
            <mxPoint x="270" y="258.04" as="targetPoint" />
          </mxGeometry>
        </mxCell>
        <mxCell id="Ka_qR0vFbAZE_GIsa4IG-41" value="" style="endArrow=open;endFill=1;endSize=12;html=1;entryX=0.405;entryY=-0.029;entryDx=0;entryDy=0;entryPerimeter=0;" edge="1" parent="1" target="Ka_qR0vFbAZE_GIsa4IG-31">
          <mxGeometry width="160" relative="1" as="geometry">
            <mxPoint x="370" y="420" as="sourcePoint" />
            <mxPoint x="470" y="460" as="targetPoint" />
          </mxGeometry>
        </mxCell>
        <mxCell id="Ka_qR0vFbAZE_GIsa4IG-42" value="" style="endArrow=open;endFill=1;endSize=12;html=1;" edge="1" parent="1" target="Ka_qR0vFbAZE_GIsa4IG-29">
          <mxGeometry width="160" relative="1" as="geometry">
            <mxPoint x="350" y="400" as="sourcePoint" />
            <mxPoint x="358.5999999999999" y="548.5500000000002" as="targetPoint" />
          </mxGeometry>
        </mxCell>
        <mxCell id="Ka_qR0vFbAZE_GIsa4IG-43" value="" style="endArrow=open;endFill=1;endSize=12;html=1;entryX=0.702;entryY=0.971;entryDx=0;entryDy=0;entryPerimeter=0;" edge="1" parent="1" target="Ka_qR0vFbAZE_GIsa4IG-38">
          <mxGeometry width="160" relative="1" as="geometry">
            <mxPoint x="375" y="310" as="sourcePoint" />
            <mxPoint x="460" y="170" as="targetPoint" />
          </mxGeometry>
        </mxCell>
        <mxCell id="Ka_qR0vFbAZE_GIsa4IG-47" value="&amp;lt;&amp;lt;extend&amp;gt;&amp;gt;" style="endArrow=open;endSize=12;dashed=1;html=1;exitX=1;exitY=0.5;exitDx=0;exitDy=0;fontStyle=1;entryX=0.235;entryY=0.026;entryDx=0;entryDy=0;entryPerimeter=0;" edge="1" parent="1" source="Ka_qR0vFbAZE_GIsa4IG-32" target="Ka_qR0vFbAZE_GIsa4IG-28">
          <mxGeometry width="160" relative="1" as="geometry">
            <mxPoint x="740" y="540" as="sourcePoint" />
            <mxPoint x="572.428741563639" y="401.05008700752137" as="targetPoint" />
          </mxGeometry>
        </mxCell>
        <mxCell id="Ka_qR0vFbAZE_GIsa4IG-48" value="&amp;lt;&amp;lt;extend&amp;gt;&amp;gt;" style="endArrow=open;endSize=12;dashed=1;html=1;exitX=1;exitY=0.5;exitDx=0;exitDy=0;fontStyle=1;entryX=0.031;entryY=0.286;entryDx=0;entryDy=0;entryPerimeter=0;" edge="1" parent="1" source="Ka_qR0vFbAZE_GIsa4IG-33" target="Ka_qR0vFbAZE_GIsa4IG-28">
          <mxGeometry width="160" relative="1" as="geometry">
            <mxPoint x="50" y="283.7500000000001" as="sourcePoint" />
            <mxPoint x="130" y="370" as="targetPoint" />
          </mxGeometry>
        </mxCell>
        <mxCell id="Ka_qR0vFbAZE_GIsa4IG-49" value="&amp;lt;&amp;lt;extend&amp;gt;&amp;gt;" style="endArrow=open;endSize=12;dashed=1;html=1;exitX=1;exitY=0.5;exitDx=0;exitDy=0;fontStyle=1;entryX=0;entryY=0.5;entryDx=0;entryDy=0;" edge="1" parent="1" source="Ka_qR0vFbAZE_GIsa4IG-35" target="Ka_qR0vFbAZE_GIsa4IG-28">
          <mxGeometry width="160" relative="1" as="geometry">
            <mxPoint x="50" y="345.0000000000001" as="sourcePoint" />
            <mxPoint x="134.34000000000015" y="355.73" as="targetPoint" />
          </mxGeometry>
        </mxCell>
        <mxCell id="Ka_qR0vFbAZE_GIsa4IG-50" value="&amp;lt;&amp;lt;extend&amp;gt;&amp;gt;" style="endArrow=open;endSize=12;dashed=1;html=1;exitX=1;exitY=0.5;exitDx=0;exitDy=0;fontStyle=1;entryX=0;entryY=1;entryDx=0;entryDy=0;" edge="1" parent="1" source="Ka_qR0vFbAZE_GIsa4IG-34" target="Ka_qR0vFbAZE_GIsa4IG-28">
          <mxGeometry width="160" relative="1" as="geometry">
            <mxPoint x="50" y="410" as="sourcePoint" />
            <mxPoint x="130" y="367.5000000000001" as="targetPoint" />
          </mxGeometry>
        </mxCell>
      </root>
    </mxGraphModel>
  </diagram>
</mxfile>
